<?xml version="1.0" standalone="no"?>
<!DOCTYPE svg PUBLIC "-//W3C//DTD SVG 20010904//EN"
 "http://www.w3.org/TR/2001/REC-SVG-20010904/DTD/svg10.dtd">
<svg version="1.0" xmlns="http://www.w3.org/2000/svg"
 width="1024.000000pt" height="1024.000000pt" viewBox="0 0 1024.000000 1024.000000"
 preserveAspectRatio="xMidYMid meet">

<g transform="translate(0.000000,1024.000000) scale(0.100000,-0.100000)"
fill="#000000" stroke="none">
<path d="M747 9512 c-16 -3 -17 -290 -17 -4392 l0 -4389 193 -3 c105 -2 2081
-2 4390 0 l4197 2 0 4396 0 4396 -4373 -4 c-2405 -1 -4381 -4 -4390 -6z m4902
-1826 c15 -18 4 -46 -19 -46 -23 0 -42 24 -34 44 8 20 37 21 53 2z m2310 -390
c17 -20 3 -46 -25 -46 -39 0 -32 54 7 59 4 1 12 -5 18 -13z m-854 -381 c182
-24 374 -69 514 -121 128 -48 321 -140 321 -155 0 -6 -83 -232 -227 -616 -9
-24 -19 -43 -24 -43 -4 0 -36 17 -71 37 -164 96 -419 179 -663 214 -126 19
-409 16 -510 -4 -156 -32 -283 -114 -330 -214 -44 -93 -27 -216 40 -291 75
-84 206 -139 493 -208 332 -79 480 -117 542 -136 354 -109 540 -207 695 -363
174 -176 255 -385 255 -654 0 -213 -43 -382 -137 -543 -57 -98 -234 -283 -328
-343 -82 -52 -234 -127 -325 -160 -105 -38 -330 -82 -484 -96 -162 -15 -516
-6 -676 16 -164 23 -433 84 -505 114 -11 5 -56 21 -100 36 -89 30 -303 129
-371 172 -24 16 -43 34 -44 41 0 8 14 48 31 90 17 43 38 97 46 122 8 25 23 63
33 85 10 22 40 101 68 175 28 74 55 147 61 162 l10 28 78 -46 c192 -114 387
-198 588 -253 222 -61 502 -91 682 -71 250 26 378 83 454 201 28 44 33 62 37
129 5 93 -6 134 -57 198 -67 83 -203 148 -446 212 -66 17 -145 38 -175 46 -30
8 -134 35 -230 60 -506 130 -800 281 -958 489 -121 161 -169 300 -179 521 -14
316 83 576 295 790 73 74 199 166 282 208 125 63 336 134 445 151 22 3 58 11
80 16 122 31 571 33 790 4z m-3883 -558 c1 -281 1 -936 -1 -1454 l-3 -943 846
0 846 0 0 -345 0 -345 -1288 0 -1289 0 -6 503 c-8 546 -10 3091 -3 3098 2 2
205 3 450 1 l446 -2 2 -513z m1403 -4367 c0 -18 -6 -26 -22 -28 -18 -3 -23 1
-23 21 0 28 9 39 30 35 9 -2 15 -14 15 -28z"/>
</g>
</svg>
